<svg width="16" height="16" viewBox="0 0 16 16" fill="none" xmlns="http://www.w3.org/2000/svg">
<mask id="path-1-inside-1_155_13" fill="white">
<path d="M8.00002 16C7.71669 16 7.47936 15.904 7.28802 15.712C7.09602 15.5207 7.00002 15.2833 7.00002 15V3.825L2.12502 8.7C1.92502 8.9 1.68736 9 1.41202 9C1.13736 9 0.900024 8.9 0.700024 8.7C0.500024 8.5 0.400024 8.26667 0.400024 8C0.400024 7.73334 0.500024 7.5 0.700024 7.3L7.30002 0.700003C7.40002 0.600003 7.50836 0.529003 7.62502 0.487003C7.74169 0.44567 7.86669 0.425003 8.00002 0.425003C8.13336 0.425003 8.26269 0.44567 8.38802 0.487003C8.51269 0.529003 8.61669 0.600003 8.70002 0.700003L15.3 7.3C15.5 7.5 15.6 7.73334 15.6 8C15.6 8.26667 15.5 8.5 15.3 8.7C15.1 8.9 14.8624 9 14.587 9C14.3124 9 14.075 8.9 13.875 8.7L9.00002 3.825V15C9.00002 15.2833 8.90436 15.5207 8.71302 15.712C8.52102 15.904 8.28336 16 8.00002 16Z"/>
</mask>
<path d="M8.00002 16C7.71669 16 7.47936 15.904 7.28802 15.712C7.09602 15.5207 7.00002 15.2833 7.00002 15V3.825L2.12502 8.7C1.92502 8.9 1.68736 9 1.41202 9C1.13736 9 0.900024 8.9 0.700024 8.7C0.500024 8.5 0.400024 8.26667 0.400024 8C0.400024 7.73334 0.500024 7.5 0.700024 7.3L7.30002 0.700003C7.40002 0.600003 7.50836 0.529003 7.62502 0.487003C7.74169 0.44567 7.86669 0.425003 8.00002 0.425003C8.13336 0.425003 8.26269 0.44567 8.38802 0.487003C8.51269 0.529003 8.61669 0.600003 8.70002 0.700003L15.3 7.3C15.5 7.5 15.6 7.73334 15.6 8C15.6 8.26667 15.5 8.5 15.3 8.7C15.1 8.9 14.8624 9 14.587 9C14.3124 9 14.075 8.9 13.875 8.7L9.00002 3.825V15C9.00002 15.2833 8.90436 15.5207 8.71302 15.712C8.52102 15.904 8.28336 16 8.00002 16Z" fill="#010E2A"/>
<path d="M7.28802 15.712L8.7047 14.3002L8.69978 14.2953L7.28802 15.712ZM7.00002 3.825H9.00002V-1.00342L5.58581 2.41079L7.00002 3.825ZM7.62502 0.487003L6.95712 -1.39821L6.94759 -1.39477L7.62502 0.487003ZM8.38802 0.487003L9.02657 -1.40837L9.01441 -1.41237L8.38802 0.487003ZM8.70002 0.700003L7.16358 1.98037L7.22166 2.05007L7.28581 2.11422L8.70002 0.700003ZM9.00002 3.825L10.4142 2.41079L7.00002 -1.00342V3.825H9.00002ZM8.00002 14C8.08795 14 8.21567 14.0158 8.35948 14.0739C8.50507 14.1328 8.62154 14.2168 8.7047 14.3003L5.87135 17.1238C6.45649 17.7109 7.21189 18 8.00002 18V14ZM8.69978 14.2953C8.78322 14.3785 8.8672 14.495 8.92609 14.6405C8.98426 14.7844 9.00002 14.9121 9.00002 15H5.00002C5.00002 15.7881 5.2891 16.5435 5.87627 17.1287L8.69978 14.2953ZM9.00002 15V3.825H5.00002V15H9.00002ZM5.58581 2.41079L0.710811 7.28579L3.53924 10.1142L8.41424 5.23922L5.58581 2.41079ZM0.710811 7.28579C0.776062 7.22054 0.879154 7.14127 1.02112 7.08154C1.16416 7.02135 1.30159 7 1.41202 7V11C2.23377 11 2.97562 10.6778 3.53924 10.1142L0.710811 7.28579ZM1.41202 7C1.52345 7 1.66142 7.0216 1.8046 7.08193C1.94662 7.14176 2.04943 7.22099 2.11424 7.28579L-0.714189 10.1142C-0.151606 10.6768 0.58952 11 1.41202 11V7ZM2.11424 7.28579C2.17364 7.3452 2.25226 7.44471 2.31331 7.58716C2.37536 7.73193 2.40002 7.8764 2.40002 8H-1.59998C-1.59998 8.83178 -1.26401 9.56439 -0.714189 10.1142L2.11424 7.28579ZM2.40002 8C2.40002 8.1236 2.37536 8.26807 2.31331 8.41284C2.25226 8.5553 2.17364 8.65481 2.11424 8.71422L-0.714189 5.88579C-1.26401 6.43561 -1.59998 7.16823 -1.59998 8H2.40002ZM2.11424 8.71422L8.71424 2.11422L5.88581 -0.714211L-0.714189 5.88579L2.11424 8.71422ZM8.71424 2.11422C8.63534 2.19312 8.4993 2.29792 8.30246 2.36878L6.94759 -1.39477C6.51742 -1.23991 6.16471 -0.993112 5.88581 -0.714211L8.71424 2.11422ZM8.29292 2.37219C8.1791 2.41251 8.07661 2.425 8.00002 2.425V-1.575C7.65677 -1.575 7.30428 -1.52117 6.95713 -1.39818L8.29292 2.37219ZM8.00002 2.425C7.92277 2.425 7.84052 2.4124 7.76163 2.38638L9.01441 -1.41237C8.68486 -1.52106 8.34395 -1.575 8.00002 -1.575V2.425ZM7.74949 2.38233C7.52769 2.30761 7.31959 2.16758 7.16358 1.98037L10.2365 -0.580366C9.91379 -0.967579 9.49769 -1.2496 9.02656 -1.40833L7.74949 2.38233ZM7.28581 2.11422L13.8858 8.71422L16.7142 5.88579L10.1142 -0.714211L7.28581 2.11422ZM13.8858 8.71422C13.8264 8.65481 13.7478 8.5553 13.6867 8.41285C13.6247 8.26808 13.6 8.12361 13.6 8H17.6C17.6 7.16822 17.2641 6.43561 16.7142 5.88579L13.8858 8.71422ZM13.6 8C13.6 7.8764 13.6247 7.73193 13.6867 7.58716C13.7478 7.4447 13.8264 7.34519 13.8858 7.28579L16.7142 10.1142C17.2641 9.5644 17.6 8.83178 17.6 8H13.6ZM13.8858 7.28579C13.9511 7.22054 14.0542 7.14127 14.1961 7.08154C14.3392 7.02135 14.4766 7 14.587 7V11C15.4088 11 16.1506 10.6778 16.7142 10.1142L13.8858 7.28579ZM14.587 7C14.6985 7 14.8364 7.0216 14.9796 7.08193C15.1216 7.14177 15.2244 7.22099 15.2892 7.28579L12.4608 10.1142C13.0234 10.6768 13.7645 11 14.587 11V7ZM15.2892 7.28579L10.4142 2.41079L7.58581 5.23922L12.4608 10.1142L15.2892 7.28579ZM7.00002 3.825V15H11V3.825H7.00002ZM7.00002 15C7.00002 14.9129 7.01557 14.786 7.07331 14.6428C7.13177 14.4977 7.21533 14.3813 7.29881 14.2978L10.1272 17.1262C10.7129 16.5406 11 15.7859 11 15H7.00002ZM7.29881 14.2978C7.38128 14.2153 7.49694 14.132 7.64172 14.0736C7.7848 14.0158 7.91206 14 8.00002 14V18C8.78809 18 9.54237 17.7111 10.1272 17.1262L7.29881 14.2978Z" fill="#010E2A" mask="url(#path-1-inside-1_155_13)"/>
</svg>
