<svg width="20" height="20" viewBox="0 0 20 20" fill="none" xmlns="http://www.w3.org/2000/svg">
<path d="M15.4083 14.9408C15.1699 14.2074 14.4824 13.6666 13.6666 13.6666H12.7499V10.9166C12.7499 10.6735 12.6533 10.4403 12.4814 10.2684C12.3095 10.0965 12.0764 9.99992 11.8333 9.99992H6.33325V8.16659H8.16659C8.4097 8.16659 8.64286 8.07001 8.81477 7.8981C8.98668 7.72619 9.08325 7.49303 9.08325 7.24992V5.41659H10.9166C11.4028 5.41659 11.8691 5.22343 12.2129 4.87961C12.5568 4.5358 12.7499 4.06948 12.7499 3.58325V3.20742C13.8467 3.64959 14.82 4.35094 15.5865 5.25143C16.353 6.15193 16.8899 7.22475 17.1512 8.37807C17.4124 9.53139 17.3904 10.7308 17.0868 11.8738C16.7833 13.0167 16.2073 14.0691 15.4083 14.9408ZM9.08325 17.2691C5.46242 16.8199 2.66659 13.7399 2.66659 9.99992C2.66659 9.43159 2.73992 8.88159 2.85909 8.35909L7.24992 12.7499V13.6666C7.24992 14.1528 7.44307 14.6191 7.78689 14.9629C8.13071 15.3068 8.59702 15.4999 9.08325 15.4999M9.99992 0.833252C8.79613 0.833252 7.60414 1.07035 6.49199 1.53102C5.37984 1.99169 4.36931 2.6669 3.51811 3.51811C1.79902 5.23719 0.833252 7.56877 0.833252 9.99992C0.833252 12.4311 1.79902 14.7626 3.51811 16.4817C4.36931 17.3329 5.37984 18.0081 6.49199 18.4688C7.60414 18.9295 8.79613 19.1666 9.99992 19.1666C12.4311 19.1666 14.7626 18.2008 16.4817 16.4817C18.2008 14.7626 19.1666 12.4311 19.1666 9.99992C19.1666 8.79613 18.9295 7.60414 18.4688 6.49199C18.0081 5.37984 17.3329 4.36931 16.4817 3.51811C15.6305 2.6669 14.62 1.99169 13.5079 1.53102C12.3957 1.07035 11.2037 0.833252 9.99992 0.833252Z" fill="#F8F8F8"/>
</svg>
