<svg width="34" height="34" viewBox="0 0 34 34" fill="none" xmlns="http://www.w3.org/2000/svg">
<path d="M34 17.4252C34 21.223 32.9188 24.6383 30.7564 27.6711C28.5957 30.7039 25.8026 32.8017 22.3788 33.9662C21.981 34.0427 21.6886 33.99 21.505 33.8081C21.4144 33.72 21.343 33.6141 21.2954 33.4971C21.2477 33.38 21.2247 33.2544 21.2279 33.1281V28.3392C21.2279 26.8721 20.8437 25.7977 20.077 25.1177C20.8429 25.0408 21.6017 24.9044 22.3465 24.7097C23.0163 24.5278 23.7099 24.2337 24.4256 23.8257C25.1137 23.4407 25.7223 22.9284 26.2191 22.3161C26.6985 21.7177 27.0895 20.9238 27.3921 19.9327C27.6947 18.9416 27.846 17.8043 27.846 16.5191C27.846 14.6882 27.2629 13.1293 26.0984 11.8441C26.6424 10.4671 26.5846 8.92518 25.9199 7.21498C25.5068 7.07898 24.9101 7.16398 24.1281 7.46488C23.4188 7.73134 22.7367 8.06552 22.0915 8.46278L21.25 9.00678C19.8679 8.61273 18.4372 8.41473 17 8.41858C15.5627 8.41528 14.1321 8.61385 12.75 9.00848C12.4425 8.79554 12.129 8.59146 11.8099 8.39648C11.4189 8.15338 10.8018 7.86268 9.9603 7.52268C9.1205 7.18268 8.4847 7.08068 8.0563 7.21668C7.4086 8.92518 7.3559 10.4671 7.9033 11.8441C6.7371 13.1293 6.1523 14.6882 6.1523 16.5191C6.1523 17.8043 6.3053 18.9382 6.6079 19.9225C6.9105 20.9051 7.2981 21.699 7.769 22.3042C8.2573 22.9229 8.86269 23.4393 9.5506 23.824C10.2663 24.232 10.9616 24.5278 11.6314 24.708C12.3029 24.8916 13.0594 25.0276 13.9009 25.1177C13.311 25.6617 12.9489 26.442 12.8163 27.4552C12.4993 27.6087 12.1648 27.7229 11.8201 27.7952C11.4047 27.8767 10.982 27.9149 10.5587 27.9091C10.0708 27.9091 9.5897 27.7459 9.1086 27.4212C8.6292 27.0948 8.2195 26.6222 7.8795 26.0034C7.6139 25.5354 7.24748 25.1324 6.8068 24.8236C6.3716 24.521 6.0061 24.3391 5.7103 24.2796L5.2683 24.2116C4.9589 24.2116 4.7447 24.2456 4.6257 24.3136C4.5067 24.3816 4.4727 24.4666 4.5152 24.5737C4.5652 24.689 4.63225 24.7962 4.7141 24.8916C4.79902 24.9937 4.89607 25.085 5.0031 25.1636L5.1561 25.2758C5.4825 25.4288 5.8021 25.7161 6.12 26.1394C6.4379 26.5627 6.6708 26.9486 6.817 27.2954L7.038 27.8173C7.2301 28.3919 7.5548 28.8577 8.0138 29.213C8.4711 29.57 8.9658 29.7961 9.4962 29.893C10.0266 29.9916 10.54 30.046 11.0347 30.0528C11.5277 30.0596 11.9391 30.0341 12.2638 29.9729L12.7721 29.8828C12.7721 30.4574 12.7755 31.1306 12.784 31.9024L12.7942 33.1264C12.7942 33.3984 12.699 33.6262 12.5052 33.8064C12.3148 33.99 12.019 34.0427 11.6212 33.9662C8.1974 32.8017 5.4043 30.7022 3.2436 27.6711C1.0812 24.6383 0 21.223 0 17.4252C0 14.2632 0.7599 11.3494 2.2797 8.67868C3.75102 6.05924 5.88497 3.87252 8.4677 2.33768C11.0423 0.787807 13.9949 -0.0210809 17 0.000176265C20.0056 -0.0213945 22.9589 0.787505 25.534 2.33768C28.1161 3.87276 30.2495 6.05946 31.7203 8.67868C33.2401 11.3477 34 14.2649 34 17.4252Z" fill="#F8F8F8"/>
</svg>
