<svg width="84" height="84" viewBox="0 0 84 84" fill="none" xmlns="http://www.w3.org/2000/svg">
<path d="M0.875 0.875V83.125H83.125V0.875H0.875ZM44.9375 64.7656C44.9375 72.7721 40.2081 76.6754 33.3619 76.6754C27.1785 76.6754 23.5892 73.4735 21.768 69.6088L28.0616 65.7993C29.2751 67.9528 30.1968 69.7741 32.846 69.7741C35.0491 69.7741 36.8594 68.7808 36.8594 64.9162V39.0625H44.9375V64.7656ZM63.1775 76.4918C56.0009 76.4918 51.3633 73.2532 49.0996 68.7808L55.4023 65.1328C57.0547 67.839 59.2119 69.6419 63.0215 69.6419C66.2234 69.6419 68.0832 68.2245 68.0832 66.0159C68.0832 63.3666 66.1683 62.4285 62.6341 60.8753L60.7027 60.0454C55.1251 57.6734 51.4275 54.6918 51.4275 48.3964C51.4275 42.6003 55.843 38.3667 62.7443 38.3667C67.6591 38.3667 71.1896 39.8942 73.7323 44.3665L67.7031 48.2422C66.3776 45.8683 64.9492 44.9375 62.7351 44.9375C60.4714 44.9375 59.0357 46.3732 59.0357 48.2422C59.0357 50.561 60.4714 51.4991 63.7834 52.9348L65.7148 53.7629C72.2856 56.5792 75.985 59.4543 75.985 65.9094C75.9869 72.8676 70.5213 76.4918 63.1775 76.4918Z" fill="#F8F8F8"/>
</svg>
