<svg width="18" height="15" viewBox="0 0 18 15" fill="none" xmlns="http://www.w3.org/2000/svg">
<path d="M0 1.625C0 1.32663 0.118526 1.04048 0.329505 0.829505C0.540483 0.618526 0.826631 0.5 1.125 0.5H16.875C17.1734 0.5 17.4595 0.618526 17.6705 0.829505C17.8815 1.04048 18 1.32663 18 1.625C18 1.92337 17.8815 2.20952 17.6705 2.4205C17.4595 2.63147 17.1734 2.75 16.875 2.75H1.125C0.826631 2.75 0.540483 2.63147 0.329505 2.4205C0.118526 2.20952 0 1.92337 0 1.625V1.625ZM0 7.625C0 7.32663 0.118526 7.04048 0.329505 6.8295C0.540483 6.61853 0.826631 6.5 1.125 6.5H16.875C17.1734 6.5 17.4595 6.61853 17.6705 6.8295C17.8815 7.04048 18 7.32663 18 7.625C18 7.92337 17.8815 8.20952 17.6705 8.42049C17.4595 8.63147 17.1734 8.75 16.875 8.75H1.125C0.826631 8.75 0.540483 8.63147 0.329505 8.42049C0.118526 8.20952 0 7.92337 0 7.625V7.625ZM0 13.625C0 13.3266 0.118526 13.0405 0.329505 12.8295C0.540483 12.6185 0.826631 12.5 1.125 12.5H16.875C17.1734 12.5 17.4595 12.6185 17.6705 12.8295C17.8815 13.0405 18 13.3266 18 13.625C18 13.9234 17.8815 14.2095 17.6705 14.4205C17.4595 14.6315 17.1734 14.75 16.875 14.75H1.125C0.826631 14.75 0.540483 14.6315 0.329505 14.4205C0.118526 14.2095 0 13.9234 0 13.625V13.625Z" fill="#F8F8F8"/>
</svg>
