<svg width="80" height="80" viewBox="0 0 80 80" fill="none" xmlns="http://www.w3.org/2000/svg">
<path d="M40 0.833313C45.1434 0.833313 50.2365 1.84639 54.9884 3.8147C59.7403 5.78301 64.058 8.668 67.695 12.305C71.332 15.9419 74.217 20.2596 76.1853 25.0115C78.1536 29.7635 79.1666 34.8565 79.1666 40C79.1666 50.3876 75.0402 60.3498 67.695 67.695C60.3498 75.0402 50.3876 79.1666 40 79.1666C34.8565 79.1666 29.7635 78.1536 25.0115 76.1853C20.2596 74.217 15.9419 71.332 12.305 67.695C4.95979 60.3498 0.833313 50.3876 0.833313 40C0.833313 29.6123 4.95979 19.6501 12.305 12.305C19.6501 4.95979 29.6123 0.833313 40 0.833313ZM32.1666 53.0425C32.7933 55.1575 32.715 57.1158 32.1666 58.9175C32.1666 59.1133 32.01 59.3091 31.9316 59.5833C31.8533 59.5833 31.775 59.8575 31.6575 60.0533C31.2266 60.9933 30.6 61.8941 29.8558 62.6775C27.5841 65.1842 24.3333 66.1241 23.0408 65.3408C21.5525 64.4791 22.375 60.9541 24.96 58.1733C27.78 55.1966 31.8533 53.2383 31.8533 53.2383L32.1666 53.0425ZM64.5575 17.5966C62.795 10.625 51.2408 8.35331 40.3525 12.2308C33.8508 14.5416 26.8008 18.145 21.7483 22.8841C15.7558 28.5241 14.7766 33.42 15.1683 35.4566C16.5 42.6633 26.4483 47.4025 30.5216 50.8883V50.9275C29.3466 51.515 20.5733 55.9408 18.4583 60.4841C16.3433 65.2625 18.85 68.7092 20.4166 69.1792C25.665 70.5891 30.9525 68.0433 33.7725 63.7741C36.5141 59.7008 36.3183 54.4133 35.1041 51.75C36.7491 51.3583 38.6683 51.1625 41.0966 51.4366C47.99 52.2591 49.3216 56.5283 49.0475 58.33C48.8125 60.1316 47.3633 61.1108 46.8933 61.4241C46.4233 61.6983 46.2666 61.8158 46.3058 62.0508C46.345 62.3641 46.58 62.3642 46.9716 62.2858C47.5591 62.1683 50.6141 60.8366 50.7316 57.5075C50.8883 53.2775 46.8541 48.5775 39.7258 48.695C36.7883 48.7733 34.9475 49.0475 33.6158 49.5566L33.3025 49.2041C28.8766 44.5042 20.73 41.175 21.0825 34.83C21.2 32.5191 21.9833 26.4875 36.7491 19.1241C48.8125 13.0925 58.4866 14.7375 60.1708 18.4583C62.56 23.6675 55.0008 33.42 42.4675 34.83C37.6891 35.3783 35.1433 33.4983 34.5166 32.8325C33.8508 32.1666 33.7725 32.0491 33.5375 32.1666C33.1066 32.4408 33.3808 33.0675 33.5375 33.4591C33.89 34.4383 35.4566 36.0833 38.0416 37.0233C40.3525 37.7675 45.9925 38.1983 52.7683 35.5741C60.3666 32.6366 66.32 24.4508 64.5575 17.5966Z" fill="#F8F8F8"/>
</svg>
